<?xml version="1.0" encoding="UTF-8" standalone="no"?>
<svg
   inkscape:version="1.2.2 (b0a8486541, 2022-12-01)"
   height="80.900879"
   width="90.793907"
   sodipodi:docname="danger.svg"
   id="svg14"
   y="0px"
   x="0px"
   version="1.1"
   viewBox="0 0 90.793907 80.900879"
   xmlns:inkscape="http://www.inkscape.org/namespaces/inkscape"
   xmlns:sodipodi="http://sodipodi.sourceforge.net/DTD/sodipodi-0.dtd"
   xmlns="http://www.w3.org/2000/svg"
   xmlns:svg="http://www.w3.org/2000/svg"
   xmlns:rdf="http://www.w3.org/1999/02/22-rdf-syntax-ns#"
   xmlns:cc="http://creativecommons.org/ns#"
   xmlns:dc="http://purl.org/dc/elements/1.1/">
  <metadata
     id="metadata20">
    <rdf:RDF>
      <cc:Work
         rdf:about="">
        <dc:format>image/svg+xml</dc:format>
        <dc:type
           rdf:resource="http://purl.org/dc/dcmitype/StillImage" />
        <dc:title>Double bend - First to Left</dc:title>
      </cc:Work>
    </rdf:RDF>
  </metadata>
  <defs
     id="defs18" />
  <sodipodi:namedview
     inkscape:current-layer="svg14"
     inkscape:window-maximized="1"
     inkscape:window-y="0"
     inkscape:window-x="1920"
     inkscape:cy="52.647293"
     inkscape:cx="34.434713"
     inkscape:zoom="5.024"
     showgrid="false"
     id="namedview16"
     inkscape:window-height="1005"
     inkscape:window-width="1920"
     inkscape:pageshadow="2"
     inkscape:pageopacity="0"
     guidetolerance="10"
     gridtolerance="10"
     objecttolerance="10"
     borderopacity="1"
     bordercolor="#666666"
     pagecolor="#ffffff"
     inkscape:showpageshadow="0"
     inkscape:pagecheckerboard="0"
     inkscape:deskcolor="#d1d1d1" />
  <title
     id="title2">Double bend - First to Left</title>
  <desc
     id="desc4">Created with Sketch.</desc>
  <path
     id="path6"
     fill-rule="nonzero"
     fill="#000000"
     d="M 48.87198,3.020659 C 48.516716,2.397135 48.00025,1.880669 47.376726,1.525405 45.457284,0.431769 43.014702,1.101218 41.921067,3.020659 L 1.5245432,73.92068 C 1.1807759,74.524027 1,75.206474 1,75.900882 c 0,2.209139 1.790861,4 4,4 h 80.793047 c 0.694408,0 1.376855,-0.180776 1.980202,-0.524543 1.919442,-1.093635 2.58889,-3.536217 1.495255,-5.455659 z m 0.868864,-0.49505 40.396524,70.900021 c 1.367044,2.399302 0.530234,5.452529 -1.869068,6.819573 -0.754184,0.429709 -1.607242,0.655679 -2.475253,0.655679 H 5 c -2.7614237,0 -5,-2.238576 -5,-5 0,-0.86801 0.2259699,-1.721069 0.6556791,-2.475252 L 41.052203,2.525609 c 1.367044,-2.399302 4.420271,-3.2361128 6.819573,-1.869068 0.779406,0.444079 1.424989,1.089662 1.869068,1.869068 z M 48.00824,3.502493 C 47.739858,3.02746 47.34701,2.634612 46.871978,2.36623 45.429433,1.551226 43.599329,2.059948 42.784325,3.502493 L 2.7146577,74.425187 c -0.2543712,0.450233 -0.3880422,0.958574 -0.3880422,1.475695 0,1.656855 1.3431457,3 3.0000005,3 H 85.46595 c 0.517121,0 1.025462,-0.133671 1.475695,-0.388042 1.442544,-0.815004 1.951266,-2.645108 1.136262,-4.087653 z M 15.607858,69.900882 45.396283,17.175829 75.184707,69.900882 Z M 37.015338,50.049938 H 37 V 38.243243 L 40.5,35 44,38.243243 v 11.197159 l 5.834031,-4.308713 C 50.877629,44.417652 52.14004,44 53.5,44 c 3.503865,0 6.3602,2.772408 6.495022,6.243243 H 60 V 67 L 56.5,63.756757 53,67 V 51.423365 l -7.089373,5.11496 C 45.165208,56.836178 44.351735,57 43.5,57 39.910149,57 37,54.089851 37,50.5 c 0,-0.151283 0.0052,-0.30136 0.01534,-0.450062 z"
     style="display:inline;stroke:none;stroke-width:1;fill:#fb9f46;fill-opacity:1" />
</svg>
