<?xml version="1.0" encoding="UTF-8" standalone="no"?>
<svg
   width="487.774994pt"
   height="531.200012pt"
   viewBox="0 0 487.774994 531.200012"
   version="1.1"
   id="svg30"
   sodipodi:docname="type1-1.svg"
   inkscape:version="1.2 (dc2aedaf03, 2022-05-15)"
   xmlns:inkscape="http://www.inkscape.org/namespaces/inkscape"
   xmlns:sodipodi="http://sodipodi.sourceforge.net/DTD/sodipodi-0.dtd"
   xmlns="http://www.w3.org/2000/svg"
   xmlns:svg="http://www.w3.org/2000/svg">
  <sodipodi:namedview
     id="namedview32"
     pagecolor="#ffffff"
     bordercolor="#666666"
     borderopacity="1.0"
     inkscape:showpageshadow="2"
     inkscape:pageopacity="0.0"
     inkscape:pagecheckerboard="0"
     inkscape:deskcolor="#d1d1d1"
     inkscape:document-units="pt"
     showgrid="false"
     inkscape:zoom="1.1817583"
     inkscape:cx="220.85735"
     inkscape:cy="274.16775"
     inkscape:window-width="1920"
     inkscape:window-height="1017"
     inkscape:window-x="-8"
     inkscape:window-y="-8"
     inkscape:window-maximized="1"
     inkscape:current-layer="svg30" />
  <defs
     id="defs5">
    <clipPath
       id="clip1">
      <path
         d="M 0 0 L 487.773438 0 L 487.773438 531.199219 L 0 531.199219 Z M 0 0 "
         id="path2" />
    </clipPath>
  </defs>
  <path
     style="fill:#ff7f7f;fill-opacity:1;fill-rule:nonzero;stroke:none"
     d="m 804.96589,314.31204 c 0,64.38281 -52.19141,116.57422 -116.57422,116.57422 -64.37891,0 -116.57032,-52.19141 -116.57032,-116.57422 0,-64.37891 52.19141,-116.57032 116.57032,-116.57032 64.38281,0 116.57422,52.19141 116.57422,116.57032 z m 0,0"
     id="path7" />
  <path
     style="fill:#ff0000;fill-opacity:1;fill-rule:nonzero;stroke:none"
     d="m 872.5793,437.6221 c 0,64.38281 -52.1914,116.57031 -116.57031,116.57031 -64.38281,0 -116.57031,-52.1875 -116.57031,-116.57031 0,-64.3789 52.1875,-116.57031 116.57031,-116.57031 64.37891,0 116.57031,52.19141 116.57031,116.57031 z m 0,0"
     id="path9" />
  <path
     style="fill:#ffd4d4;fill-opacity:1;fill-rule:nonzero;stroke:none"
     d="m 744.19588,135.52986 c 0,64.38281 -52.19141,116.57031 -116.57031,116.57031 -64.37891,0 -116.57031,-52.1875 -116.57031,-116.57031 0,-64.378901 52.1914,-116.570311 116.57031,-116.570311 64.3789,0 116.57031,52.19141 116.57031,116.570311 z m 0,0"
     id="path11" />
  <g
     clip-path="url(#clip1)"
     clip-rule="nonzero"
     id="g15" />
  <path
     style="fill:#ffffff;fill-opacity:1;fill-rule:nonzero;stroke:none;stroke-width:0.330697"
     d="m 599.7928,369.80078 c -6.57996,7.68928 -10.67199,18.46248 -10.67199,30.38136 0,11.91745 4.09203,22.68216 10.67199,30.37285 6.58113,-7.69069 10.67316,-18.4554 10.67316,-30.37285 0,-11.91888 -4.09203,-22.69208 -10.67316,-30.38136 z m 0,0"
     id="path17" />
  <path
     style="fill:#ffffff;fill-opacity:1;fill-rule:nonzero;stroke:none"
     d="m 163.875,200.47656 c -8.26953,0 -16.31641,0.85938 -24.10156,2.5 12.41797,51.02735 58.40234,88.92188 113.25,88.92188 8.26953,0 16.34375,-0.85938 24.125,-2.5 C 264.73828,238.36328 218.73047,200.47656 163.875,200.47656 Z m 0,0"
     id="path19" />
  <path
     style="fill:#ffffff;fill-opacity:1;fill-rule:nonzero;stroke:none"
     d="m 326.17578,200.47656 c -53.34375,0 -98.32422,35.81641 -112.17578,84.72266 12.20312,4.33594 25.33594,6.69922 39.02344,6.69922 53.34375,0 98.32422,-35.81641 112.17578,-84.72266 -12.20313,-4.33594 -25.33203,-6.69922 -39.02344,-6.69922 z m 0,0"
     id="path21" />
  <path
     style="fill:none;stroke:#000000;stroke-width:3.2;stroke-linecap:round;stroke-linejoin:miter;stroke-miterlimit:4;stroke-opacity:1"
     d="m 369.59766,175.32422 c 0,64.38281 -52.19141,116.57422 -116.57422,116.57422 -64.37891,0 -116.57032,-52.19141 -116.57032,-116.57422 0,-64.37891 52.19141,-116.570314 116.57032,-116.570314 64.38281,0 116.57422,52.191404 116.57422,116.570314 z m 0,0"
     id="path23" />
  <path
     style="fill:none;stroke:#000000;stroke-width:3.2;stroke-linecap:round;stroke-linejoin:miter;stroke-miterlimit:4;stroke-opacity:1"
     d="m 255.06721,296.09568 c 0,64.38281 -52.1914,116.57031 -116.57031,116.57031 -64.382803,0 -116.570303,-52.1875 -116.570303,-116.57031 0,-64.3789 52.1875,-116.57031 116.570303,-116.57031 64.37891,0 116.57031,52.19141 116.57031,116.57031 z m 0,0"
     id="path25" />
  <path
     style="fill:none;stroke:#000000;stroke-width:3.2;stroke-linecap:round;stroke-linejoin:miter;stroke-miterlimit:4;stroke-opacity:1"
     d="m 364.08286,315.41984 c 0,64.38281 -52.1914,116.57031 -116.57031,116.57031 -64.38281,0 -116.57031,-52.1875 -116.57031,-116.57031 0,-64.3789 52.1875,-116.57031 116.57031,-116.57031 64.37891,0 116.57031,52.19141 116.57031,116.57031 z m 0,0"
     id="path25-8" />
  <path
     style="fill:none;stroke:#000000;stroke-width:3.2;stroke-linecap:round;stroke-linejoin:miter;stroke-miterlimit:4;stroke-opacity:1"
     d="m 474.47066,297.99964 c 0,64.38281 -52.19141,116.57031 -116.57031,116.57031 -64.37891,0 -116.57031,-52.1875 -116.57031,-116.57031 0,-64.3789 52.1914,-116.57031 116.57031,-116.57031 64.3789,0 116.57031,52.19141 116.57031,116.57031 z m 0,0"
     id="path27" />
</svg>
