<?xml version="1.0" encoding="UTF-8"?>
<svg xmlns="http://www.w3.org/2000/svg" xmlns:xlink="http://www.w3.org/1999/xlink" width="360pt" height="198pt" viewBox="0 0 360 198" version="1.1">
<defs>
<clipPath id="clip1">
  <path d="M 5.480469 183 L 354.523438 183 L 354.523438 185 L 5.480469 185 Z M 5.480469 183 "/>
</clipPath>
</defs>
<g id="surface174">
<rect x="0" y="0" width="360" height="198" style="fill:rgb(100%,100%,100%);fill-opacity:1;stroke:none;"/>
<rect x="0" y="0" width="360" height="198" style="fill:rgb(100%,100%,100%);fill-opacity:1;stroke:none;"/>
<path style="fill:none;stroke-width:1.066978;stroke-linecap:round;stroke-linejoin:round;stroke:rgb(100%,100%,100%);stroke-opacity:1;stroke-miterlimit:10;" d="M 0 198 L 360 198 L 360 0 L 0 0 Z M 0 198 "/>
<path style="fill:none;stroke-width:2.133957;stroke-linecap:butt;stroke-linejoin:round;stroke:rgb(0%,0%,0%);stroke-opacity:1;stroke-miterlimit:10;" d="M 21.34375 184.019531 L 68.941406 184.019531 L 72.113281 184.015625 L 75.289062 184.015625 L 78.460938 184.011719 L 81.632812 184.003906 L 84.808594 183.992188 L 87.980469 183.972656 L 91.152344 183.941406 L 94.328125 183.882812 L 97.5 183.792969 L 100.671875 183.648438 L 103.84375 183.417969 L 107.019531 183.066406 L 110.191406 182.539062 L 113.363281 181.761719 L 116.539062 180.644531 L 119.710938 179.074219 L 122.882812 176.914062 L 126.058594 174.007812 L 129.230469 170.183594 L 132.402344 165.273438 L 135.578125 159.109375 L 138.75 151.566406 L 141.921875 142.554688 L 145.097656 132.070312 L 148.269531 120.203125 L 151.441406 107.140625 L 154.613281 93.203125 L 157.789062 78.824219 L 160.960938 64.53125 L 164.132812 50.929688 L 167.308594 38.65625 L 170.480469 28.335938 L 173.652344 20.519531 L 176.828125 15.640625 L 180 13.980469 L 183.171875 15.640625 L 186.347656 20.519531 L 189.519531 28.335938 L 192.691406 38.65625 L 195.867188 50.929688 L 199.039062 64.53125 L 202.210938 78.824219 L 205.386719 93.203125 L 208.558594 107.140625 L 211.730469 120.203125 L 214.902344 132.070312 L 218.078125 142.554688 L 221.25 151.566406 L 224.421875 159.109375 L 227.597656 165.273438 L 230.769531 170.183594 L 233.941406 174.007812 L 237.117188 176.914062 L 240.289062 179.074219 L 243.460938 180.644531 L 246.636719 181.761719 L 249.808594 182.539062 L 252.980469 183.066406 L 256.15625 183.417969 L 259.328125 183.648438 L 262.5 183.792969 L 265.671875 183.882812 L 268.847656 183.941406 L 272.019531 183.972656 L 275.191406 183.992188 L 278.367188 184.003906 L 281.539062 184.011719 L 284.710938 184.015625 L 287.886719 184.015625 L 291.058594 184.019531 L 338.65625 184.019531 "/>
<g clip-path="url(#clip1)" clip-rule="nonzero">
<path style="fill:none;stroke-width:1.066978;stroke-linecap:butt;stroke-linejoin:round;stroke:rgb(0%,0%,0%);stroke-opacity:1;stroke-miterlimit:10;" d="M 5.480469 184.019531 L 354.519531 184.019531 "/>
</g>
</g>
</svg>
