<?xml version="1.0" encoding="UTF-8"?>
<svg xmlns="http://www.w3.org/2000/svg" xmlns:xlink="http://www.w3.org/1999/xlink" width="360pt" height="198pt" viewBox="0 0 360 198" version="1.1">
<defs>
<clipPath id="clip1">
  <path d="M 5.480469 183 L 354.523438 183 L 354.523438 185 L 5.480469 185 Z M 5.480469 183 "/>
</clipPath>
</defs>
<g id="surface184">
<rect x="0" y="0" width="360" height="198" style="fill:rgb(100%,100%,100%);fill-opacity:1;stroke:none;"/>
<rect x="0" y="0" width="360" height="198" style="fill:rgb(100%,100%,100%);fill-opacity:1;stroke:none;"/>
<path style="fill:none;stroke-width:1.066978;stroke-linecap:round;stroke-linejoin:round;stroke:rgb(100%,100%,100%);stroke-opacity:1;stroke-miterlimit:10;" d="M 0 198 L 360 198 L 360 0 L 0 0 Z M 0 198 "/>
<path style="fill:none;stroke-width:2.133957;stroke-linecap:butt;stroke-linejoin:round;stroke:rgb(0%,0%,0%);stroke-opacity:1;stroke-miterlimit:10;" d="M 21.34375 184.019531 L 68.941406 184.019531 L 72.113281 184.015625 L 75.289062 184.015625 L 78.460938 184.011719 L 81.632812 184.003906 L 84.808594 183.992188 L 87.980469 183.972656 L 91.152344 183.941406 L 94.328125 183.882812 L 97.5 183.792969 L 100.671875 183.648438 L 103.84375 183.417969 L 107.019531 183.066406 L 110.191406 182.539062 L 113.363281 181.761719 L 116.539062 180.644531 L 119.710938 179.074219 L 122.882812 176.914062 L 126.058594 174.007812 L 129.230469 170.183594 L 132.402344 165.273438 L 135.578125 159.109375 L 138.75 151.566406 L 141.921875 142.554688 L 145.097656 132.070312 L 148.269531 120.203125 L 151.441406 107.140625 L 154.613281 93.203125 L 157.789062 78.824219 L 160.960938 64.53125 L 164.132812 50.929688 L 167.308594 38.65625 L 170.480469 28.335938 L 173.652344 20.519531 L 176.828125 15.640625 L 180 13.980469 L 183.171875 15.640625 L 186.347656 20.519531 L 189.519531 28.335938 L 192.691406 38.65625 L 195.867188 50.929688 L 199.039062 64.53125 L 202.210938 78.824219 L 205.386719 93.203125 L 208.558594 107.140625 L 211.730469 120.203125 L 214.902344 132.070312 L 218.078125 142.554688 L 221.25 151.566406 L 224.421875 159.109375 L 227.597656 165.273438 L 230.769531 170.183594 L 233.941406 174.007812 L 237.117188 176.914062 L 240.289062 179.074219 L 243.460938 180.644531 L 246.636719 181.761719 L 249.808594 182.539062 L 252.980469 183.066406 L 256.15625 183.417969 L 259.328125 183.648438 L 262.5 183.792969 L 265.671875 183.882812 L 268.847656 183.941406 L 272.019531 183.972656 L 275.191406 183.992188 L 278.367188 184.003906 L 281.539062 184.011719 L 284.710938 184.015625 L 287.886719 184.015625 L 291.058594 184.019531 L 338.65625 184.019531 "/>
<g clip-path="url(#clip1)" clip-rule="nonzero">
<path style="fill:none;stroke-width:1.066978;stroke-linecap:butt;stroke-linejoin:round;stroke:rgb(0%,0%,0%);stroke-opacity:1;stroke-miterlimit:10;" d="M 5.480469 184.019531 L 354.519531 184.019531 "/>
</g>
<path style="fill:none;stroke-width:2.133957;stroke-linecap:butt;stroke-linejoin:round;stroke:rgb(100%,0%,0%);stroke-opacity:1;stroke-miterlimit:10;" d="M 21.34375 184.019531 L 91.152344 184.019531 L 94.328125 184.015625 L 97.5 184.015625 L 103.84375 184.007812 L 107.019531 183.996094 L 110.191406 183.976562 L 113.363281 183.945312 L 116.539062 183.894531 L 119.710938 183.808594 L 122.882812 183.671875 L 126.058594 183.457031 L 129.230469 183.125 L 132.402344 182.625 L 135.578125 181.890625 L 138.75 180.828125 L 141.921875 179.332031 L 145.097656 177.265625 L 148.269531 174.472656 L 151.441406 170.792969 L 154.613281 166.046875 L 157.789062 160.074219 L 160.960938 152.730469 L 164.132812 143.933594 L 167.308594 133.65625 L 170.480469 121.976562 L 173.652344 109.070312 L 176.828125 95.234375 L 180 80.886719 L 183.171875 66.542969 L 186.347656 52.804688 L 189.519531 40.304688 L 192.691406 29.667969 L 195.867188 21.464844 L 199.039062 16.144531 L 202.210938 14.015625 L 205.386719 15.203125 L 208.558594 19.632812 L 211.730469 27.054688 L 214.902344 37.050781 L 218.078125 49.082031 L 221.25 62.53125 L 224.421875 76.761719 L 227.597656 91.164062 L 230.769531 105.195312 L 233.941406 118.402344 L 237.117188 130.457031 L 240.289062 141.148438 L 243.460938 150.367188 L 246.636719 158.121094 L 249.808594 164.472656 L 252.980469 169.550781 L 256.15625 173.519531 L 259.328125 176.546875 L 262.5 178.804688 L 265.671875 180.453125 L 268.847656 181.625 L 272.019531 182.445312 L 275.191406 183.003906 L 278.367188 183.375 L 281.539062 183.621094 L 284.710938 183.777344 L 287.886719 183.875 L 291.058594 183.933594 L 294.230469 183.96875 L 297.40625 183.992188 L 300.578125 184.003906 L 303.75 184.011719 L 306.925781 184.015625 L 313.269531 184.015625 L 316.441406 184.019531 L 338.65625 184.019531 "/>
</g>
</svg>
