<?xml version="1.0" encoding="UTF-8"?>
<svg xmlns="http://www.w3.org/2000/svg" xmlns:xlink="http://www.w3.org/1999/xlink" width="360pt" height="198pt" viewBox="0 0 360 198" version="1.1">
<defs>
<clipPath id="clip1">
  <path d="M 5.480469 183 L 354.523438 183 L 354.523438 185 L 5.480469 185 Z M 5.480469 183 "/>
</clipPath>
</defs>
<g id="surface214">
<rect x="0" y="0" width="360" height="198" style="fill:rgb(100%,100%,100%);fill-opacity:1;stroke:none;"/>
<rect x="0" y="0" width="360" height="198" style="fill:rgb(100%,100%,100%);fill-opacity:1;stroke:none;"/>
<path style="fill:none;stroke-width:1.066978;stroke-linecap:round;stroke-linejoin:round;stroke:rgb(100%,100%,100%);stroke-opacity:1;stroke-miterlimit:10;" d="M 0 198 L 360 198 L 360 0 L 0 0 Z M 0 198 "/>
<path style="fill:none;stroke-width:2.133957;stroke-linecap:butt;stroke-linejoin:round;stroke:rgb(0%,0%,0%);stroke-opacity:1;stroke-miterlimit:10;" d="M 21.34375 184.019531 L 68.941406 184.019531 L 72.113281 184.015625 L 75.289062 184.015625 L 81.632812 184.007812 L 84.808594 184 L 87.980469 183.984375 L 91.152344 183.960938 L 94.328125 183.917969 L 97.5 183.847656 L 100.671875 183.738281 L 103.84375 183.566406 L 107.019531 183.304688 L 110.191406 182.90625 L 113.363281 182.324219 L 116.539062 181.488281 L 119.710938 180.308594 L 122.882812 178.691406 L 126.058594 176.507812 L 129.230469 173.640625 L 132.402344 169.957031 L 135.578125 165.335938 L 138.75 159.679688 L 141.921875 152.921875 L 145.097656 145.058594 L 148.269531 136.15625 L 151.441406 126.359375 L 154.613281 115.90625 L 157.789062 105.121094 L 160.960938 94.402344 L 164.132812 84.203125 L 167.308594 75 L 170.480469 67.257812 L 173.652344 61.394531 L 176.828125 57.734375 L 180 56.492188 L 183.171875 57.734375 L 186.347656 61.394531 L 189.519531 67.257812 L 192.691406 75 L 195.867188 84.203125 L 199.039062 94.402344 L 202.210938 105.121094 L 205.386719 115.90625 L 208.558594 126.359375 L 211.730469 136.15625 L 214.902344 145.058594 L 218.078125 152.921875 L 221.25 159.679688 L 224.421875 165.335938 L 227.597656 169.957031 L 230.769531 173.640625 L 233.941406 176.507812 L 237.117188 178.691406 L 240.289062 180.308594 L 243.460938 181.488281 L 246.636719 182.324219 L 249.808594 182.90625 L 252.980469 183.304688 L 256.15625 183.566406 L 259.328125 183.738281 L 262.5 183.847656 L 265.671875 183.917969 L 268.847656 183.960938 L 272.019531 183.984375 L 275.191406 184 L 278.367188 184.007812 L 284.710938 184.015625 L 287.886719 184.015625 L 291.058594 184.019531 L 338.65625 184.019531 "/>
<g clip-path="url(#clip1)" clip-rule="nonzero">
<path style="fill:none;stroke-width:1.066978;stroke-linecap:butt;stroke-linejoin:round;stroke:rgb(0%,0%,0%);stroke-opacity:1;stroke-miterlimit:10;" d="M 5.480469 184.019531 L 354.519531 184.019531 "/>
</g>
<path style="fill:none;stroke-width:2.133957;stroke-linecap:butt;stroke-linejoin:round;stroke:rgb(100%,0%,0%);stroke-opacity:1;stroke-miterlimit:10;" d="M 21.34375 184.019531 L 91.152344 184.019531 L 94.328125 184.015625 L 97.5 184.015625 L 103.84375 184.007812 L 107.019531 184 L 110.191406 183.988281 L 113.363281 183.964844 L 116.539062 183.925781 L 119.710938 183.863281 L 122.882812 183.757812 L 126.058594 183.597656 L 129.230469 183.347656 L 132.402344 182.972656 L 135.578125 182.421875 L 138.75 181.625 L 141.921875 180.503906 L 145.097656 178.953125 L 148.269531 176.859375 L 151.441406 174.097656 L 154.613281 170.539062 L 157.789062 166.058594 L 160.960938 160.554688 L 164.132812 153.953125 L 167.308594 146.246094 L 170.480469 137.488281 L 173.652344 127.804688 L 176.828125 117.429688 L 180 106.667969 L 183.171875 95.914062 L 186.347656 85.609375 L 189.519531 76.234375 L 192.691406 68.257812 L 195.867188 62.101562 L 199.039062 58.113281 L 202.210938 56.515625 L 205.386719 57.40625 L 208.558594 60.730469 L 211.730469 66.296875 L 214.902344 73.792969 L 218.078125 82.816406 L 221.25 92.902344 L 224.421875 103.578125 L 227.597656 114.378906 L 230.769531 124.902344 L 233.941406 134.808594 L 237.117188 143.847656 L 240.289062 151.863281 L 243.460938 158.78125 L 246.636719 164.59375 L 249.808594 169.359375 L 252.980469 173.167969 L 256.15625 176.144531 L 259.328125 178.414062 L 262.5 180.109375 L 265.671875 181.34375 L 268.847656 182.222656 L 272.019531 182.835938 L 275.191406 183.257812 L 278.367188 183.535156 L 281.539062 183.71875 L 284.710938 183.835938 L 287.886719 183.910156 L 291.058594 183.957031 L 294.230469 183.980469 L 297.40625 184 L 300.578125 184.007812 L 303.75 184.011719 L 306.925781 184.015625 L 310.097656 184.015625 L 313.269531 184.019531 L 338.65625 184.019531 "/>
<path style="fill:none;stroke-width:2.133957;stroke-linecap:butt;stroke-linejoin:round;stroke:rgb(0%,0%,100%);stroke-opacity:1;stroke-miterlimit:10;" d="M 21.34375 184.019531 L 46.730469 184.019531 L 49.902344 184.015625 L 53.074219 184.015625 L 56.25 184.011719 L 59.421875 184.007812 L 62.59375 184 L 65.769531 183.980469 L 68.941406 183.957031 L 72.113281 183.910156 L 75.289062 183.835938 L 78.460938 183.71875 L 81.632812 183.535156 L 84.808594 183.257812 L 87.980469 182.835938 L 91.152344 182.222656 L 94.328125 181.34375 L 97.5 180.109375 L 100.671875 178.414062 L 103.84375 176.144531 L 107.019531 173.167969 L 110.191406 169.359375 L 113.363281 164.59375 L 116.539062 158.78125 L 119.710938 151.863281 L 122.882812 143.847656 L 126.058594 134.808594 L 129.230469 124.902344 L 132.402344 114.378906 L 135.578125 103.578125 L 138.75 92.902344 L 141.921875 82.816406 L 145.097656 73.792969 L 148.269531 66.296875 L 151.441406 60.730469 L 154.613281 57.40625 L 157.789062 56.515625 L 160.960938 58.113281 L 164.132812 62.101562 L 167.308594 68.257812 L 170.480469 76.234375 L 173.652344 85.609375 L 176.828125 95.914062 L 180 106.667969 L 183.171875 117.429688 L 186.347656 127.804688 L 189.519531 137.488281 L 192.691406 146.246094 L 195.867188 153.953125 L 199.039062 160.554688 L 202.210938 166.058594 L 205.386719 170.539062 L 208.558594 174.097656 L 211.730469 176.859375 L 214.902344 178.953125 L 218.078125 180.503906 L 221.25 181.625 L 224.421875 182.421875 L 227.597656 182.972656 L 230.769531 183.347656 L 233.941406 183.597656 L 237.117188 183.757812 L 240.289062 183.863281 L 243.460938 183.925781 L 246.636719 183.964844 L 249.808594 183.988281 L 252.980469 184 L 256.15625 184.007812 L 262.5 184.015625 L 265.671875 184.015625 L 268.847656 184.019531 L 338.65625 184.019531 "/>
<path style="fill:none;stroke-width:2.133957;stroke-linecap:butt;stroke-linejoin:round;stroke:rgb(100%,64.705882%,0%);stroke-opacity:1;stroke-miterlimit:10;" d="M 21.34375 183.878906 L 24.519531 183.839844 L 27.691406 183.792969 L 30.863281 183.734375 L 34.039062 183.660156 L 37.210938 183.570312 L 40.382812 183.464844 L 43.558594 183.332031 L 46.730469 183.171875 L 49.902344 182.980469 L 53.074219 182.753906 L 56.25 182.484375 L 59.421875 182.164062 L 62.59375 181.789062 L 65.769531 181.355469 L 68.941406 180.847656 L 72.113281 180.265625 L 75.289062 179.59375 L 78.460938 178.832031 L 81.632812 177.964844 L 84.808594 176.988281 L 87.980469 175.894531 L 91.152344 174.679688 L 94.328125 173.332031 L 97.5 171.847656 L 100.671875 170.230469 L 103.84375 168.46875 L 107.019531 166.570312 L 110.191406 164.539062 L 113.363281 162.375 L 116.539062 160.085938 L 119.710938 157.6875 L 122.882812 155.191406 L 126.058594 152.609375 L 129.230469 149.964844 L 132.402344 147.277344 L 135.578125 144.570312 L 138.75 141.871094 L 141.921875 139.210938 L 145.097656 136.613281 L 148.269531 134.109375 L 151.441406 131.730469 L 154.613281 129.507812 L 157.789062 127.46875 L 160.960938 125.636719 L 164.132812 124.042969 L 167.308594 122.707031 L 170.480469 121.644531 L 173.652344 120.875 L 176.828125 120.410156 L 180 120.253906 L 183.171875 120.410156 L 186.347656 120.875 L 189.519531 121.644531 L 192.691406 122.707031 L 195.867188 124.042969 L 199.039062 125.636719 L 202.210938 127.46875 L 205.386719 129.507812 L 208.558594 131.730469 L 211.730469 134.109375 L 214.902344 136.613281 L 218.078125 139.210938 L 221.25 141.871094 L 224.421875 144.570312 L 227.597656 147.277344 L 230.769531 149.964844 L 233.941406 152.609375 L 237.117188 155.191406 L 240.289062 157.6875 L 243.460938 160.085938 L 246.636719 162.375 L 249.808594 164.539062 L 252.980469 166.570312 L 256.15625 168.46875 L 259.328125 170.230469 L 262.5 171.847656 L 265.671875 173.332031 L 268.847656 174.679688 L 272.019531 175.894531 L 275.191406 176.988281 L 278.367188 177.964844 L 281.539062 178.832031 L 284.710938 179.59375 L 287.886719 180.265625 L 291.058594 180.847656 L 294.230469 181.355469 L 297.40625 181.789062 L 300.578125 182.164062 L 303.75 182.484375 L 306.925781 182.753906 L 310.097656 182.980469 L 313.269531 183.171875 L 316.441406 183.332031 L 319.617188 183.464844 L 322.789062 183.570312 L 325.960938 183.660156 L 329.136719 183.734375 L 332.308594 183.792969 L 335.480469 183.839844 L 338.65625 183.878906 "/>
<path style="fill:none;stroke-width:2.133957;stroke-linecap:butt;stroke-linejoin:round;stroke:rgb(62.745098%,12.54902%,94.117647%);stroke-opacity:1;stroke-miterlimit:10;" d="M 21.34375 184.019531 L 94.328125 184.019531 L 97.5 184.015625 L 100.671875 184.015625 L 103.84375 184.011719 L 107.019531 184 L 110.191406 183.980469 L 113.363281 183.941406 L 116.539062 183.859375 L 119.710938 183.703125 L 122.882812 183.417969 L 126.058594 182.914062 L 129.230469 182.054688 L 132.402344 180.644531 L 135.578125 178.425781 L 138.75 175.070312 L 141.921875 170.183594 L 145.097656 163.363281 L 148.269531 154.238281 L 151.441406 142.554688 L 154.613281 128.261719 L 157.789062 111.609375 L 160.960938 93.203125 L 164.132812 74.019531 L 167.308594 55.347656 L 170.480469 38.65625 L 173.652344 25.425781 L 176.828125 16.917969 L 180 13.980469 L 183.171875 16.917969 L 186.347656 25.425781 L 189.519531 38.65625 L 192.691406 55.347656 L 195.867188 74.019531 L 199.039062 93.203125 L 202.210938 111.609375 L 205.386719 128.261719 L 208.558594 142.554688 L 211.730469 154.238281 L 214.902344 163.363281 L 218.078125 170.183594 L 221.25 175.070312 L 224.421875 178.425781 L 227.597656 180.644531 L 230.769531 182.054688 L 233.941406 182.914062 L 237.117188 183.417969 L 240.289062 183.703125 L 243.460938 183.859375 L 246.636719 183.941406 L 249.808594 183.980469 L 252.980469 184 L 256.15625 184.011719 L 259.328125 184.015625 L 262.5 184.015625 L 265.671875 184.019531 L 338.65625 184.019531 "/>
</g>
</svg>
