<?xml version="1.0" encoding="UTF-8" standalone="no"?>
<svg
   width="487.774994pt"
   height="531.200012pt"
   viewBox="0 0 487.774994 531.200012"
   version="1.1"
   id="svg30"
   sodipodi:docname="type1-1.svg"
   inkscape:version="1.2 (dc2aedaf03, 2022-05-15)"
   xmlns:inkscape="http://www.inkscape.org/namespaces/inkscape"
   xmlns:sodipodi="http://sodipodi.sourceforge.net/DTD/sodipodi-0.dtd"
   xmlns="http://www.w3.org/2000/svg"
   xmlns:svg="http://www.w3.org/2000/svg">
  <sodipodi:namedview
     id="namedview32"
     pagecolor="#ffffff"
     bordercolor="#666666"
     borderopacity="1.0"
     inkscape:showpageshadow="2"
     inkscape:pageopacity="0.0"
     inkscape:pagecheckerboard="0"
     inkscape:deskcolor="#d1d1d1"
     inkscape:document-units="pt"
     showgrid="false"
     inkscape:zoom="1.9077568"
     inkscape:cx="358.79836"
     inkscape:cy="335.99671"
     inkscape:window-width="1920"
     inkscape:window-height="1017"
     inkscape:window-x="-8"
     inkscape:window-y="-8"
     inkscape:window-maximized="1"
     inkscape:current-layer="svg30" />
  <defs
     id="defs5">
    <clipPath
       id="clip1">
      <path
         d="M 0 0 L 487.773438 0 L 487.773438 531.199219 L 0 531.199219 Z M 0 0 "
         id="path2" />
    </clipPath>
  </defs>
  <path
     style="fill:#ff0000;fill-opacity:1;fill-rule:nonzero;stroke:none"
     d="m 255.70187,294.8264 c 0,64.38281 -52.1914,116.57031 -116.57031,116.57031 -64.382814,0 -116.570314,-52.1875 -116.570314,-116.57031 0,-64.3789 52.1875,-116.57031 116.570314,-116.57031 64.37891,0 116.57031,52.19141 116.57031,116.57031 z m 0,0"
     id="path9" />
  <path
     style="fill:#ffd4d4;fill-opacity:1;fill-rule:nonzero;stroke:none"
     d="m 968.22647,252.30501 c 0,64.38281 -52.19141,116.57031 -116.57031,116.57031 -64.37891,0 -116.57031,-52.1875 -116.57031,-116.57031 0,-64.3789 52.1914,-116.57031 116.57031,-116.57031 64.3789,0 116.57031,52.19141 116.57031,116.57031 z m 0,0"
     id="path11" />
  <g
     clip-path="url(#clip1)"
     clip-rule="nonzero"
     id="g15" />
  <path
     style="fill:#ffffff;fill-opacity:1;stroke:#000000;stroke-width:0;stroke-linecap:butt;stroke-linejoin:miter;stroke-dasharray:none;stroke-opacity:1"
     d="m 136.41676,179.66127 1.57253,16.90467 6.68324,22.01539 10.22143,19.65659 11.00769,15.33215 20.04973,19.26345 20.04972,9.8283 20.44286,6.29011 16.90467,2.75192 15.33214,0.78627 17.29781,-3.14505 17.69093,-4.32446 19.65659,-10.61456 17.69094,-12.58022 20.04973,-21.62225 9.82829,-19.26346 7.07637,-25.9467 1.96566,-19.26347 47.9621,-8.25577 63.29423,60.54231 -2.3588,117.54644 -9.04202,48.74835 L 359.32254,434.41072 226.44396,453.28105 62.507969,427.33435 14.939011,360.89506 8.2557697,251.99753 34.202474,179.26813 116.76017,159.61154 Z"
     id="path1706"
     sodipodi:nodetypes="cccccccccccccccccccccccccccccc" />
  <path
     style="fill:none;stroke:#000000;stroke-width:3.2;stroke-linecap:round;stroke-linejoin:miter;stroke-miterlimit:4;stroke-opacity:1"
     d="m 369.59766,175.32422 c 0,64.38281 -52.19141,116.57422 -116.57422,116.57422 -64.37891,0 -116.57032,-52.19141 -116.57032,-116.57422 0,-64.37891 52.19141,-116.570314 116.57032,-116.570314 64.38281,0 116.57422,52.191404 116.57422,116.570314 z m 0,0"
     id="path23" />
  <path
     style="fill:none;stroke:#000000;stroke-width:3.2;stroke-linecap:round;stroke-linejoin:miter;stroke-miterlimit:4;stroke-opacity:1"
     d="m 255.06721,296.09568 c 0,64.38281 -52.1914,116.57031 -116.57031,116.57031 -64.382803,0 -116.570303,-52.1875 -116.570303,-116.57031 0,-64.3789 52.1875,-116.57031 116.570303,-116.57031 64.37891,0 116.57031,52.19141 116.57031,116.57031 z m 0,0"
     id="path25" />
  <path
     style="fill:none;stroke:#000000;stroke-width:3.2;stroke-linecap:round;stroke-linejoin:miter;stroke-miterlimit:4;stroke-opacity:1"
     d="m 364.08286,315.41984 c 0,64.38281 -52.1914,116.57031 -116.57031,116.57031 -64.38281,0 -116.57031,-52.1875 -116.57031,-116.57031 0,-64.3789 52.1875,-116.57031 116.57031,-116.57031 64.37891,0 116.57031,52.19141 116.57031,116.57031 z m 0,0"
     id="path25-8" />
  <path
     style="fill:none;stroke:#000000;stroke-width:3.2;stroke-linecap:round;stroke-linejoin:miter;stroke-miterlimit:4;stroke-opacity:1"
     d="m 474.47066,297.99964 c 0,64.38281 -52.19141,116.57031 -116.57031,116.57031 -64.37891,0 -116.57031,-52.1875 -116.57031,-116.57031 0,-64.3789 52.1914,-116.57031 116.57031,-116.57031 64.3789,0 116.57031,52.19141 116.57031,116.57031 z m 0,0"
     id="path27" />
</svg>
