<?xml version="1.0" encoding="UTF-8" standalone="no"?>
<svg
   width="487.774994pt"
   height="531.200012pt"
   viewBox="0 0 487.774994 531.200012"
   version="1.1"
   id="svg30"
   sodipodi:docname="type3-2.svg"
   inkscape:version="1.2 (dc2aedaf03, 2022-05-15)"
   xmlns:inkscape="http://www.inkscape.org/namespaces/inkscape"
   xmlns:sodipodi="http://sodipodi.sourceforge.net/DTD/sodipodi-0.dtd"
   xmlns="http://www.w3.org/2000/svg"
   xmlns:svg="http://www.w3.org/2000/svg">
  <sodipodi:namedview
     id="namedview32"
     pagecolor="#ffffff"
     bordercolor="#666666"
     borderopacity="1.0"
     inkscape:showpageshadow="2"
     inkscape:pageopacity="0.0"
     inkscape:pagecheckerboard="0"
     inkscape:deskcolor="#d1d1d1"
     inkscape:document-units="pt"
     showgrid="false"
     inkscape:zoom="1.2502642"
     inkscape:cx="331.92984"
     inkscape:cy="284.73982"
     inkscape:window-width="1920"
     inkscape:window-height="1017"
     inkscape:window-x="-8"
     inkscape:window-y="-8"
     inkscape:window-maximized="1"
     inkscape:current-layer="svg30" />
  <defs
     id="defs5">
    <clipPath
       id="clip1">
      <path
         d="M 0 0 L 487.773438 0 L 487.773438 531.199219 L 0 531.199219 Z M 0 0 "
         id="path2" />
    </clipPath>
  </defs>
  <path
     style="fill:#ffd4d4;fill-opacity:1;fill-rule:nonzero;stroke:none"
     d="m 744.19588,200.26391 c 0,64.38281 -52.19141,116.57031 -116.57031,116.57031 -64.37891,0 -116.57031,-52.1875 -116.57031,-116.57031 0,-64.3789 52.1914,-116.570308 116.57031,-116.570308 64.3789,0 116.57031,52.191408 116.57031,116.570308 z m 0,0"
     id="path11" />
  <path
     style="fill:#ff0000;fill-opacity:1;fill-rule:nonzero;stroke:none;stroke-width:0.947997"
     d="m 248.8564,255.50351 c -15.30627,-47.22179 -61.39052,-77.21896 -110.6682,-76.07036 -0.51497,11.99159 1.06414,24.26525 4.99159,36.38193 15.30625,47.2218 61.39049,77.21896 110.66818,76.07036 0.51498,-11.99159 -1.063,-24.2618 -4.99157,-36.38193 z m 0,0"
     id="path21-3" />
  <path
     style="fill:#ff7f7f;fill-opacity:1;fill-rule:nonzero;stroke:none"
     d="m 811.94703,287.65684 c 0,64.38281 -52.19141,116.57422 -116.57422,116.57422 -64.37891,0 -116.57032,-52.19141 -116.57032,-116.57422 0,-64.37891 52.19141,-116.57032 116.57032,-116.57032 64.38281,0 116.57422,52.19141 116.57422,116.57032 z m 0,0"
     id="path7" />
  <path
     style="fill:#ff7f7f;fill-opacity:1;fill-rule:nonzero;stroke:none"
     d="m 898.45807,319.86041 c 0,64.38281 -52.19141,116.57422 -116.57422,116.57422 -64.37891,0 -116.57032,-52.19141 -116.57032,-116.57422 0,-64.37891 52.19141,-116.57031 116.57032,-116.57031 64.38281,0 116.57422,52.1914 116.57422,116.57031 z m 0,0"
     id="path7-1" />
  <g
     clip-path="url(#clip1)"
     clip-rule="nonzero"
     id="g15" />
  <path
     style="fill:#ffffff;fill-opacity:1;fill-rule:nonzero;stroke:none;stroke-width:1.36133"
     d="m 180.64748,220.8874 c -8.95993,6.2672 -17.12891,13.45108 -24.51462,21.42333 46.09377,55.03729 120.15599,68.04871 179.58268,26.48147 8.95991,-6.2672 17.15853,-13.4718 24.54001,-21.4411 -46.09029,-55.05306 -120.17293,-68.03687 -179.60807,-26.4637 z m 0,0"
     id="path19" />
  <path
     style="fill:#ffffff;fill-opacity:1;fill-rule:nonzero;stroke:none"
     d="m 626.99873,84.336056 c -53.34375,0 -98.32422,35.816414 -112.17578,84.722664 12.20312,4.33594 25.33594,6.69922 39.02344,6.69922 53.34375,0 98.32422,-35.81641 112.17578,-84.722664 -12.20313,-4.33594 -25.33203,-6.69922 -39.02344,-6.69922 z m 0,0"
     id="path21" />
  <path
     style="fill:#ffffff;fill-opacity:1;fill-rule:nonzero;stroke:none;stroke-width:0.330697"
     d="m 599.7928,369.80078 c -6.57996,7.68928 -10.67199,18.46248 -10.67199,30.38136 0,11.91745 4.09203,22.68216 10.67199,30.37285 6.58113,-7.69069 10.67316,-18.4554 10.67316,-30.37285 0,-11.91888 -4.09203,-22.69208 -10.67316,-30.38136 z m 0,0"
     id="path17" />
  <path
     style="fill:none;stroke:#000000;stroke-width:3.2;stroke-linecap:round;stroke-linejoin:miter;stroke-miterlimit:4;stroke-opacity:1"
     d="m 369.59766,175.32422 c 0,64.38281 -52.19141,116.57422 -116.57422,116.57422 -64.37891,0 -116.57032,-52.19141 -116.57032,-116.57422 0,-64.37891 52.19141,-116.570314 116.57032,-116.570314 64.38281,0 116.57422,52.191404 116.57422,116.570314 z m 0,0"
     id="path23" />
  <path
     style="fill:none;stroke:#000000;stroke-width:3.2;stroke-linecap:round;stroke-linejoin:miter;stroke-miterlimit:4;stroke-opacity:1"
     d="m 255.06721,296.09568 c 0,64.38281 -52.1914,116.57031 -116.57031,116.57031 -64.382803,0 -116.570303,-52.1875 -116.570303,-116.57031 0,-64.3789 52.1875,-116.57031 116.570303,-116.57031 64.37891,0 116.57031,52.19141 116.57031,116.57031 z m 0,0"
     id="path25" />
  <path
     style="fill:none;stroke:#000000;stroke-width:3.2;stroke-linecap:round;stroke-linejoin:miter;stroke-miterlimit:4;stroke-opacity:1"
     d="m 364.08286,315.41984 c 0,64.38281 -52.1914,116.57031 -116.57031,116.57031 -64.38281,0 -116.57031,-52.1875 -116.57031,-116.57031 0,-64.3789 52.1875,-116.57031 116.57031,-116.57031 64.37891,0 116.57031,52.19141 116.57031,116.57031 z m 0,0"
     id="path25-8" />
  <path
     style="fill:none;stroke:#000000;stroke-width:3.2;stroke-linecap:round;stroke-linejoin:miter;stroke-miterlimit:4;stroke-opacity:1"
     d="m 474.47066,297.99964 c 0,64.38281 -52.19141,116.57031 -116.57031,116.57031 -64.37891,0 -116.57031,-52.1875 -116.57031,-116.57031 0,-64.3789 52.1914,-116.57031 116.57031,-116.57031 64.3789,0 116.57031,52.19141 116.57031,116.57031 z m 0,0"
     id="path27" />
</svg>
